<svg width="32" height="32" viewBox="0 0 32 32" fill="none" xmlns="http://www.w3.org/2000/svg">
<path d="M8.66667 26.6666C6.64445 26.6666 4.91689 25.9666 3.484 24.5666C2.05111 23.1666 1.33422 21.4555 1.33334 19.4333C1.33334 17.6999 1.85556 16.1555 2.9 14.7999C3.94445 13.4444 5.31111 12.5777 7 12.1999C7.55556 10.1555 8.66667 8.49992 10.3333 7.23325C12 5.96659 13.8889 5.33325 16 5.33325C18.6 5.33325 20.8058 6.23903 22.6173 8.05059C24.4289 9.86214 25.3342 12.0675 25.3333 14.6666C26.8667 14.8444 28.1391 15.5057 29.1507 16.6506C30.1622 17.7955 30.6676 19.1341 30.6667 20.6666C30.6667 22.3333 30.0836 23.7501 28.9173 24.9173C27.7511 26.0844 26.3342 26.6675 24.6667 26.6666H8.66667Z" fill="#12924F"/>
</svg>
