<svg width="24" height="24" viewBox="0 0 24 24" fill="none" xmlns="http://www.w3.org/2000/svg">
<path fill-rule="evenodd" clip-rule="evenodd" d="M5.962 20.174L5.579 20.558C5.43868 20.6983 5.2721 20.8096 5.08877 20.8856C4.90543 20.9615 4.70894 21.0006 4.5105 21.0006C4.31206 21.0006 4.11557 20.9615 3.93223 20.8856C3.7489 20.8096 3.58232 20.6983 3.442 20.558C3.30168 20.4177 3.19038 20.2511 3.11444 20.0678C3.0385 19.8844 2.99941 19.6879 2.99941 19.4895C2.99941 19.2911 3.0385 19.0946 3.11444 18.9112C3.19038 18.7279 3.30168 18.5613 3.442 18.421L3.826 18.038C4.03996 17.8246 4.20304 17.5657 4.30311 17.2805C4.40318 16.9954 4.43767 16.6913 4.404 16.391L4.314 15.592C4.26394 15.1416 4.31588 14.6858 4.46597 14.2582C4.61605 13.8306 4.86043 13.4423 5.181 13.122L14.124 4.18C14.4963 3.79822 14.9406 3.49417 15.4313 3.28546C15.922 3.07675 16.4493 2.96755 16.9825 2.96419C17.5157 2.96083 18.0443 3.06338 18.5376 3.26589C19.0309 3.46839 19.4791 3.76683 19.8561 4.14389C20.2332 4.52094 20.5316 4.96911 20.7341 5.46239C20.9366 5.95568 21.0392 6.48426 21.0358 7.01749C21.0324 7.55071 20.9232 8.07796 20.7145 8.56866C20.5058 9.05935 20.2018 9.50373 19.82 9.876L18.927 10.77L17.626 9.47C17.5573 9.39631 17.4745 9.33721 17.3825 9.29622C17.2905 9.25523 17.1912 9.23318 17.0905 9.23141C16.9898 9.22963 16.8898 9.24816 16.7964 9.28588C16.703 9.3236 16.6182 9.37974 16.547 9.45096C16.4757 9.52218 16.4196 9.60701 16.3819 9.7004C16.3442 9.79379 16.3256 9.89382 16.3274 9.99452C16.3292 10.0952 16.3512 10.1945 16.3922 10.2865C16.4332 10.3785 16.4923 10.4613 16.566 10.53L17.866 11.83L15.727 13.97L14.427 12.67C14.2856 12.5333 14.0962 12.4576 13.8995 12.4592C13.7029 12.4609 13.5148 12.5396 13.3756 12.6786C13.2365 12.8176 13.1575 13.0057 13.1557 13.2023C13.1539 13.399 13.2294 13.5885 13.366 13.73L14.666 15.03L12.518 17.179L11.218 15.879C11.1488 15.8073 11.0661 15.7502 10.9746 15.7108C10.8831 15.6715 10.7847 15.6507 10.6852 15.6498C10.5856 15.6489 10.4868 15.6678 10.3946 15.7055C10.3024 15.7432 10.2187 15.7988 10.1482 15.8692C10.0778 15.9396 10.022 16.0233 9.98428 16.1155C9.94652 16.2076 9.9275 16.3064 9.92832 16.4059C9.92914 16.5055 9.94978 16.604 9.98904 16.6955C10.0283 16.787 10.0854 16.8698 10.157 16.939L11.457 18.239L10.877 18.819C10.5567 19.1392 10.1685 19.3834 9.74115 19.5333C9.31377 19.6832 8.85814 19.735 8.408 19.685L7.608 19.596C7.30784 19.5625 7.00399 19.5971 6.71902 19.6971C6.43406 19.7972 6.17531 19.9602 5.962 20.174ZM16.03 9.03C16.1625 8.88782 16.2346 8.69978 16.2312 8.50548C16.2277 8.31118 16.149 8.12579 16.0116 7.98838C15.8742 7.85097 15.6888 7.77225 15.4945 7.76883C15.3002 7.7654 15.1122 7.83752 14.97 7.97L8.47 14.47C8.39631 14.5387 8.33721 14.6215 8.29622 14.7135C8.25523 14.8055 8.23318 14.9048 8.23141 15.0055C8.22963 15.1062 8.24816 15.2062 8.28588 15.2996C8.3236 15.393 8.37974 15.4778 8.45096 15.549C8.52218 15.6203 8.60701 15.6764 8.7004 15.7141C8.79379 15.7518 8.89382 15.7704 8.99452 15.7686C9.09522 15.7668 9.19454 15.7448 9.28654 15.7038C9.37854 15.6628 9.46134 15.6037 9.53 15.53L16.03 9.03Z" fill="#12924F"/>
</svg>
