<?xml version="1.0" encoding="UTF-8"?>
<!DOCTYPE svg PUBLIC "-//W3C//DTD SVG 1.1//EN" "http://www.w3.org/Graphics/SVG/1.1/DTD/svg11.dtd">
<svg xmlns="http://www.w3.org/2000/svg" version="1.1" width="1000px" height="1000px" style="shape-rendering:geometricPrecision; text-rendering:geometricPrecision; image-rendering:optimizeQuality; fill-rule:evenodd; clip-rule:evenodd" xmlns:xlink="http://www.w3.org/1999/xlink">
<g><path style="opacity:1" fill="#fefefe" d="M -0.5,-0.5 C 332.833,-0.5 666.167,-0.5 999.5,-0.5C 999.5,332.833 999.5,666.167 999.5,999.5C 666.167,999.5 332.833,999.5 -0.5,999.5C -0.5,666.167 -0.5,332.833 -0.5,-0.5 Z"/></g>
<g><path style="opacity:1" fill="#63817e" d="M 443.5,122.5 C 443.5,122.833 443.5,123.167 443.5,123.5C 420.833,123.5 398.167,123.5 375.5,123.5C 375.5,123.167 375.5,122.833 375.5,122.5C 398.163,121.222 420.83,121.222 443.5,122.5 Z"/></g>
<g><path style="opacity:1" fill="#b2c5c3" d="M 443.5,123.5 C 443.5,123.167 443.5,122.833 443.5,122.5C 453.518,122.584 463.518,123.084 473.5,124C 475.058,124.21 476.391,124.71 477.5,125.5C 466.179,124.644 454.846,123.977 443.5,123.5 Z"/></g>
<g><path style="opacity:1" fill="#a1b3b2" d="M 375.5,122.5 C 375.5,122.833 375.5,123.167 375.5,123.5C 362.818,123.918 350.152,124.584 337.5,125.5C 338.609,124.71 339.942,124.21 341.5,124C 352.825,123.241 364.158,122.741 375.5,122.5 Z"/></g>
<g><path style="opacity:1" fill="#819c96" d="M 479.5,125.5 C 484.1,125.28 488.433,125.946 492.5,127.5C 487.9,127.72 483.567,127.054 479.5,125.5 Z"/></g>
<g><path style="opacity:1" fill="#9aaeac" d="M 332.5,125.5 C 326.474,127.55 320.141,128.55 313.5,128.5C 319.613,126.94 325.947,125.94 332.5,125.5 Z"/></g>
<g><path style="opacity:1" fill="#859d99" d="M 313.5,128.5 C 310.373,129.581 307.04,130.247 303.5,130.5C 303.918,129.778 304.584,129.278 305.5,129C 308.146,128.503 310.813,128.336 313.5,128.5 Z"/></g>
<g><path style="opacity:1" fill="#7e9794" d="M 495.5,127.5 C 501.743,127.849 507.743,128.849 513.5,130.5C 508.178,129.971 502.844,129.471 497.5,129C 496.584,128.722 495.918,128.222 495.5,127.5 Z"/></g>
<g><path style="opacity:1" fill="#778f8e" d="M 516.5,130.5 C 519.428,130.565 522.095,131.232 524.5,132.5C 521.505,132.706 518.838,132.04 516.5,130.5 Z"/></g>
<g><path style="opacity:1" fill="#99aeac" d="M 291.5,131.5 C 289.898,133.074 287.898,133.741 285.5,133.5C 287.102,131.926 289.102,131.259 291.5,131.5 Z"/></g>
<g><path style="opacity:1" fill="#9cb7b3" d="M 552.5,137.5 C 554.898,137.259 556.898,137.926 558.5,139.5C 556.102,139.741 554.102,139.074 552.5,137.5 Z"/></g>
<g><path style="opacity:1" fill="#afc2c1" d="M 559.5,139.5 C 563.841,139.658 567.841,140.658 571.5,142.5C 567.159,142.342 563.159,141.342 559.5,139.5 Z"/></g>
<g><path style="opacity:1" fill="#85a4a1" d="M 246.5,142.5 C 244.485,143.924 242.152,144.59 239.5,144.5C 241.515,143.076 243.848,142.41 246.5,142.5 Z"/></g>
<g><path style="opacity:1" fill="#90aaa8" d="M 572.5,143.5 C 575.495,143.294 578.162,143.96 580.5,145.5C 577.572,145.435 574.905,144.768 572.5,143.5 Z"/></g>
<g><path style="opacity:1" fill="#3a605b" d="M 265.5,137.5 C 261.189,139.807 256.523,141.307 251.5,142C 249.247,143.712 247.58,145.879 246.5,148.5C 245.522,148.023 244.689,147.357 244,146.5C 241.899,147.615 239.733,147.615 237.5,146.5C 231.614,148.516 225.614,150.35 219.5,152C 215.735,154.866 211.402,156.366 206.5,156.5C 216.993,151.334 227.993,147.334 239.5,144.5C 242.152,144.59 244.485,143.924 246.5,142.5C 252.746,140.643 259.079,138.976 265.5,137.5 Z"/></g>
<g><path style="opacity:1" fill="#b9c8c7" d="M 621.5,160.5 C 625.632,160.746 628.965,162.413 631.5,165.5C 627.569,164.868 624.235,163.201 621.5,160.5 Z"/></g>
<g><path style="opacity:1" fill="#6e8b87" d="M 149.5,189.5 C 145.5,194.167 141.167,198.5 136.5,202.5C 139.833,197.167 144.167,192.833 149.5,189.5 Z"/></g>
<g><path style="opacity:1" fill="#76928f" d="M 136.5,202.5 C 135.214,205.117 133.547,207.45 131.5,209.5C 132.01,206.326 133.677,203.992 136.5,202.5 Z"/></g>
<g><path style="opacity:1" fill="#07302c" d="M 694.5,247.5 C 694.5,298.5 694.5,349.5 694.5,400.5C 692.641,408.573 690.141,416.573 687,424.5C 677.482,436.647 666.315,447.147 653.5,456C 647.31,458.857 641.643,462.524 636.5,467C 596.606,485.072 554.94,497.739 511.5,505C 442.886,514.622 374.22,514.955 305.5,506C 284.516,501.113 263.516,496.446 242.5,492C 233.261,488.691 223.928,485.691 214.5,483C 213.167,482.333 212.167,481.333 211.5,480C 207.106,478.869 202.773,477.535 198.5,476C 197.167,475.333 196.167,474.333 195.5,473C 185.947,470.101 177.28,465.601 169.5,459.5C 167.096,458.65 164.763,457.65 162.5,456.5C 152.892,448.229 143.559,439.562 134.5,430.5C 128.72,422.825 125.22,414.159 124,404.5C 123.333,354.167 123.333,303.833 124,253.5C 129.602,267.511 138.102,279.678 149.5,290C 159.471,296.318 169.138,302.984 178.5,310C 182.342,310.721 185.676,312.387 188.5,315C 190.5,315.333 192.5,315.667 194.5,316C 204.697,320.811 215.031,325.478 225.5,330C 261.225,341.9 297.891,349.4 335.5,352.5C 339.363,353.327 343.363,354.161 347.5,355C 379.155,356.428 410.822,356.762 442.5,356C 455.037,355.367 467.37,354.2 479.5,352.5C 495.582,351.319 511.582,349.152 527.5,346C 544.284,341.11 561.284,337.11 578.5,334C 591.572,328.129 604.906,323.129 618.5,319C 623.495,315.004 629.162,312.337 635.5,311C 650.423,302.095 664.257,291.595 677,279.5C 679.658,275.843 682.658,272.509 686,269.5C 689.627,262.408 692.46,255.075 694.5,247.5 Z"/></g>
<g><path style="opacity:1" fill="#113f3b" d="M 335.5,352.5 C 359.439,354.26 383.439,355.26 407.5,355.5C 431.516,354.832 455.516,353.832 479.5,352.5C 467.37,354.2 455.037,355.367 442.5,356C 410.822,356.762 379.155,356.428 347.5,355C 343.363,354.161 339.363,353.327 335.5,352.5 Z"/></g>
<g><path style="opacity:1" fill="#1a4f49" d="M 375.5,123.5 C 398.167,123.5 420.833,123.5 443.5,123.5C 454.846,123.977 466.179,124.644 477.5,125.5C 478.167,125.5 478.833,125.5 479.5,125.5C 483.567,127.054 487.9,127.72 492.5,127.5C 493.5,127.5 494.5,127.5 495.5,127.5C 495.918,128.222 496.584,128.722 497.5,129C 502.844,129.471 508.178,129.971 513.5,130.5C 514.5,130.5 515.5,130.5 516.5,130.5C 518.838,132.04 521.505,132.706 524.5,132.5C 533.956,133.531 543.289,135.198 552.5,137.5C 554.102,139.074 556.102,139.741 558.5,139.5C 558.833,139.5 559.167,139.5 559.5,139.5C 563.159,141.342 567.159,142.342 571.5,142.5C 572.167,142.5 572.5,142.833 572.5,143.5C 574.905,144.768 577.572,145.435 580.5,145.5C 587.451,147.761 594.451,149.928 601.5,152C 607.767,155.702 614.433,158.536 621.5,160.5C 624.235,163.201 627.569,164.868 631.5,165.5C 649.846,175.268 666.346,187.601 681,202.5C 686.515,209.865 690.681,217.865 693.5,226.5C 694.387,233.47 694.721,240.47 694.5,247.5C 692.46,255.075 689.627,262.408 686,269.5C 682.658,272.509 679.658,275.843 677,279.5C 664.257,291.595 650.423,302.095 635.5,311C 629.162,312.337 623.495,315.004 618.5,319C 604.906,323.129 591.572,328.129 578.5,334C 561.284,337.11 544.284,341.11 527.5,346C 511.582,349.152 495.582,351.319 479.5,352.5C 455.516,353.832 431.516,354.832 407.5,355.5C 383.439,355.26 359.439,354.26 335.5,352.5C 297.891,349.4 261.225,341.9 225.5,330C 215.031,325.478 204.697,320.811 194.5,316C 192.5,315.667 190.5,315.333 188.5,315C 185.676,312.387 182.342,310.721 178.5,310C 169.138,302.984 159.471,296.318 149.5,290C 138.102,279.678 129.602,267.511 124,253.5C 123.333,303.833 123.333,354.167 124,404.5C 125.22,414.159 128.72,422.825 134.5,430.5C 143.559,439.562 152.892,448.229 162.5,456.5C 164.763,457.65 167.096,458.65 169.5,459.5C 177.28,465.601 185.947,470.101 195.5,473C 196.167,474.333 197.167,475.333 198.5,476C 202.773,477.535 207.106,478.869 211.5,480C 212.167,481.333 213.167,482.333 214.5,483C 223.928,485.691 233.261,488.691 242.5,492C 263.516,496.446 284.516,501.113 305.5,506C 374.22,514.955 442.886,514.622 511.5,505C 554.94,497.739 596.606,485.072 636.5,467C 641.643,462.524 647.31,458.857 653.5,456C 666.315,447.147 677.482,436.647 687,424.5C 690.141,416.573 692.641,408.573 694.5,400.5C 694.5,454.833 694.5,509.167 694.5,563.5C 691.91,564.749 689.576,566.416 687.5,568.5C 682.571,569.077 678.571,571.244 675.5,575C 671.264,576.897 667.264,579.064 663.5,581.5C 660.296,582.383 657.629,584.05 655.5,586.5C 652.712,587.226 650.712,588.893 649.5,591.5C 647.486,591.392 645.82,592.058 644.5,593.5C 642.205,594.136 640.539,595.469 639.5,597.5C 638.63,599.274 637.297,600.607 635.5,601.5C 632.527,602.81 630.193,604.81 628.5,607.5C 616.761,616.904 606.427,627.571 597.5,639.5C 594.41,641.268 592.41,643.935 591.5,647.5C 588.318,649.193 586.652,651.859 586.5,655.5C 583.746,658.14 581.413,661.14 579.5,664.5C 580.63,662.685 581.296,660.685 581.5,658.5C 578.161,658.89 574.827,659.39 571.5,660C 570.244,660.417 569.577,661.25 569.5,662.5C 568.5,661.833 567.5,661.167 566.5,660.5C 559.507,654.183 552.174,648.183 544.5,642.5C 543.614,641.675 543.281,640.675 543.5,639.5C 541.801,639.66 540.134,639.494 538.5,639C 532.932,634.584 527.265,630.417 521.5,626.5C 520.653,625.034 519.32,624.2 517.5,624C 515.838,620.188 512.838,618.522 508.5,619C 507.382,617.926 506.382,616.76 505.5,615.5C 503.929,616.309 502.262,616.643 500.5,616.5C 498.597,616.204 496.93,615.537 495.5,614.5C 490.677,611.434 485.344,609.434 479.5,608.5C 473.159,606.063 466.493,604.397 459.5,603.5C 456.069,600.886 452.069,599.886 447.5,600.5C 444.373,599.419 441.04,598.753 437.5,598.5C 431.855,597.866 426.189,597.532 420.5,597.5C 416.18,596.834 411.68,596.501 407,596.5C 398.953,596.414 391.12,597.081 383.5,598.5C 383.5,598.833 383.5,599.167 383.5,599.5C 370.77,598.56 364.436,604.56 364.5,617.5C 361.578,624.428 359.911,631.762 359.5,639.5C 358.238,644.791 357.238,650.125 356.5,655.5C 355.508,663.316 355.174,671.316 355.5,679.5C 316.805,677.628 279.138,670.795 242.5,659C 228.441,657.147 215.108,652.98 202.5,646.5C 201.713,645.758 201.047,644.925 200.5,644C 191.356,640.592 182.356,636.925 173.5,633C 159.593,622.641 146.426,611.474 134,599.5C 130.971,592.092 127.637,584.758 124,577.5C 123.5,633.499 123.333,689.499 123.5,745.5C 122.691,743.708 122.191,741.708 122,739.5C 121.333,572.167 121.333,404.833 122,237.5C 122.714,227.189 125.881,217.855 131.5,209.5C 133.547,207.45 135.214,205.117 136.5,202.5C 141.167,198.5 145.5,194.167 149.5,189.5C 156.033,183.475 163.033,177.975 170.5,173C 178.748,168.959 186.915,164.793 195,160.5C 198.572,158.476 202.406,157.142 206.5,156.5C 211.402,156.366 215.735,154.866 219.5,152C 225.614,150.35 231.614,148.516 237.5,146.5C 239.733,147.615 241.899,147.615 244,146.5C 244.689,147.357 245.522,148.023 246.5,148.5C 247.58,145.879 249.247,143.712 251.5,142C 256.523,141.307 261.189,139.807 265.5,137.5C 271.941,135.193 278.608,133.859 285.5,133.5C 287.898,133.741 289.898,133.074 291.5,131.5C 295.5,131.167 299.5,130.833 303.5,130.5C 307.04,130.247 310.373,129.581 313.5,128.5C 320.141,128.55 326.474,127.55 332.5,125.5C 334.167,125.5 335.833,125.5 337.5,125.5C 350.152,124.584 362.818,123.918 375.5,123.5 Z"/></g>
<g><path style="opacity:1" fill="#9ce18b" d="M 840.5,539.5 C 842.833,540.167 845.167,540.833 847.5,541.5C 826.178,540.67 804.844,540.337 783.5,540.5C 783.5,540.167 783.5,539.833 783.5,539.5C 802.342,538.285 821.342,538.285 840.5,539.5 Z"/></g>
<g><path style="opacity:1" fill="#daf7d4" d="M 783.5,539.5 C 783.5,539.833 783.5,540.167 783.5,540.5C 776.032,540.683 768.698,541.683 761.5,543.5C 761.5,542.5 761.5,541.5 761.5,540.5C 768.845,540.371 776.178,540.038 783.5,539.5 Z"/></g>
<g><path style="opacity:1" fill="#75dd5e" d="M 783.5,540.5 C 804.844,540.337 826.178,540.67 847.5,541.5C 852.132,542.376 856.799,543.043 861.5,543.5C 861.263,544.791 861.596,545.791 862.5,546.5C 863.887,552.268 865.554,557.934 867.5,563.5C 868.132,567.702 869.132,571.702 870.5,575.5C 870.335,578.518 870.502,581.518 871,584.5C 872.043,586.833 872.876,589.166 873.5,591.5C 873.116,595.489 873.783,599.155 875.5,602.5C 875.707,625.512 875.373,648.512 874.5,671.5C 872.053,676.438 871.053,681.772 871.5,687.5C 868.933,692.345 867.933,697.678 868.5,703.5C 866.835,708.829 865.168,714.162 863.5,719.5C 861.099,724.381 859.433,729.714 858.5,735.5C 858.167,735.5 857.833,735.5 857.5,735.5C 855.215,738.335 853.882,741.668 853.5,745.5C 852.5,745.5 851.5,745.5 850.5,745.5C 850.657,744.127 850.49,742.793 850,741.5C 849.5,742 849,742.5 848.5,743C 849.991,745.621 850.658,748.455 850.5,751.5C 849.018,754.421 847.018,757.088 844.5,759.5C 843.619,762.13 842.952,764.797 842.5,767.5C 842.167,768.833 841.833,770.167 841.5,771.5C 838.482,772.855 837.149,775.188 837.5,778.5C 835.521,779.812 833.855,781.479 832.5,783.5C 830.88,787.106 828.88,790.44 826.5,793.5C 824.782,795.223 823.449,797.223 822.5,799.5C 820.952,799.821 820.285,800.821 820.5,802.5C 818.184,803.422 816.517,805.089 815.5,807.5C 815.5,807.833 815.5,808.167 815.5,808.5C 813.563,810.091 811.563,811.758 809.5,813.5C 808.207,817.098 806.207,820.098 803.5,822.5C 801.659,823.402 800.326,824.736 799.5,826.5C 796.883,827.786 794.55,829.453 792.5,831.5C 788.592,832.75 785.592,835.083 783.5,838.5C 783.5,838.833 783.5,839.167 783.5,839.5C 778.665,841.016 774.665,843.683 771.5,847.5C 771.167,847.5 770.833,847.5 770.5,847.5C 764.668,849.677 759.335,852.677 754.5,856.5C 743.066,861.603 731.4,865.936 719.5,869.5C 713.823,869.378 708.49,870.378 703.5,872.5C 695.997,873.787 688.331,874.954 680.5,876C 661.503,876.5 642.503,876.667 623.5,876.5C 618.402,875.043 613.069,874.376 607.5,874.5C 594.331,872.903 580.997,871.403 567.5,870C 559.13,865.791 554.297,858.957 553,849.5C 551.899,839.492 550.733,829.492 549.5,819.5C 550.617,800.181 550.784,780.848 550,761.5C 548.244,759.726 548.244,758.059 550,756.5C 550.333,756.833 550.667,757.167 551,757.5C 552.333,748.167 553.667,738.833 555,729.5C 559.297,711.34 565.297,693.673 573,676.5C 574.277,674.253 575.777,672.253 577.5,670.5C 578.167,668.5 578.833,666.5 579.5,664.5C 581.413,661.14 583.746,658.14 586.5,655.5C 588.164,652.841 589.83,650.175 591.5,647.5C 593.878,645.122 595.878,642.455 597.5,639.5C 600.813,636.522 604.147,633.522 607.5,630.5C 609.5,629.833 611.5,629.167 613.5,628.5C 612.515,626.902 612.349,625.235 613,623.5C 616.349,620.318 619.516,616.985 622.5,613.5C 624.396,612.534 626.396,612.201 628.5,612.5C 628.5,610.833 628.5,609.167 628.5,607.5C 631.447,606.219 633.781,604.219 635.5,601.5C 637.297,600.607 638.63,599.274 639.5,597.5C 641.749,596.92 643.415,595.587 644.5,593.5C 645.82,592.058 647.486,591.392 649.5,591.5C 651.95,590.289 653.95,588.622 655.5,586.5C 656.873,586.657 658.207,586.49 659.5,586C 660.989,584.532 662.323,583.032 663.5,581.5C 667.264,579.064 671.264,576.897 675.5,575C 678.571,571.244 682.571,569.077 687.5,568.5C 688.873,568.657 690.207,568.49 691.5,568C 696.19,564.102 701.523,562.436 707.5,563C 709.64,562.027 711.307,560.527 712.5,558.5C 717.488,556.432 722.488,556.599 727.5,559C 731.5,559.667 735.5,559.667 739.5,559C 736.833,558.667 734.167,558.333 731.5,558C 729.5,557.333 728.167,556 727.5,554C 728.263,553.056 729.263,552.556 730.5,552.5C 732.59,554.106 734.924,554.606 737.5,554C 736.027,553.29 735.36,552.124 735.5,550.5C 742.557,548.607 749.224,546.273 755.5,543.5C 757.5,543.5 759.5,543.5 761.5,543.5C 768.698,541.683 776.032,540.683 783.5,540.5 Z"/></g>
<g><path style="opacity:1" fill="#e8fbe2" d="M 840.5,539.5 C 848.365,539.366 856.032,540.533 863.5,543C 862.663,544.011 862.33,545.178 862.5,546.5C 861.596,545.791 861.263,544.791 861.5,543.5C 856.799,543.043 852.132,542.376 847.5,541.5C 845.167,540.833 842.833,540.167 840.5,539.5 Z"/></g>
<g><path style="opacity:1" fill="#bbeeae" d="M 755.5,543.5 C 749.224,546.273 742.557,548.607 735.5,550.5C 732.833,550.833 730.167,551.167 727.5,551.5C 736.739,548.903 746.072,546.236 755.5,543.5 Z"/></g>
<g><path style="opacity:1" fill="#c9f5be" d="M 727.5,551.5 C 725.064,552.871 722.397,553.871 719.5,554.5C 721.617,552.345 724.284,551.345 727.5,551.5 Z"/></g>
<g><path style="opacity:1" fill="#81db6e" d="M 735.5,550.5 C 735.36,552.124 736.027,553.29 737.5,554C 734.924,554.606 732.59,554.106 730.5,552.5C 729.263,552.556 728.263,553.056 727.5,554C 728.167,556 729.5,557.333 731.5,558C 734.167,558.333 736.833,558.667 739.5,559C 735.5,559.667 731.5,559.667 727.5,559C 722.488,556.599 717.488,556.432 712.5,558.5C 711.307,560.527 709.64,562.027 707.5,563C 701.523,562.436 696.19,564.102 691.5,568C 690.207,568.49 688.873,568.657 687.5,568.5C 689.576,566.416 691.91,564.749 694.5,563.5C 702.969,560.873 711.302,557.873 719.5,554.5C 722.397,553.871 725.064,552.871 727.5,551.5C 730.167,551.167 732.833,550.833 735.5,550.5 Z"/></g>
<g><path style="opacity:1" fill="#c5f2bd" d="M 867.5,563.5 C 869.692,567.098 870.692,571.098 870.5,575.5C 869.132,571.702 868.132,567.702 867.5,563.5 Z"/></g>
<g><path style="opacity:1" fill="#59ae5c" d="M 663.5,581.5 C 662.323,583.032 660.989,584.532 659.5,586C 658.207,586.49 656.873,586.657 655.5,586.5C 657.629,584.05 660.296,582.383 663.5,581.5 Z"/></g>
<g><path style="opacity:1" fill="#b5eaa2" d="M 870.5,575.5 C 872.622,580.49 873.622,585.823 873.5,591.5C 872.876,589.166 872.043,586.833 871,584.5C 870.502,581.518 870.335,578.518 870.5,575.5 Z"/></g>
<g><path style="opacity:1" fill="#4e9b5b" d="M 655.5,586.5 C 653.95,588.622 651.95,590.289 649.5,591.5C 650.712,588.893 652.712,587.226 655.5,586.5 Z"/></g>
<g><path style="opacity:1" fill="#07302c" d="M 355.5,679.5 C 355.118,687.736 355.785,695.736 357.5,703.5C 357.527,709.051 358.194,714.384 359.5,719.5C 360.167,721.167 360.833,722.833 361.5,724.5C 362.118,732.006 364.118,739.006 367.5,745.5C 367.521,749.221 368.521,752.554 370.5,755.5C 370.5,760.328 372.167,764.328 375.5,767.5C 375.629,769.216 375.962,770.883 376.5,772.5C 376.725,775.546 378.058,777.879 380.5,779.5C 384.676,786.518 388.342,793.851 391.5,801.5C 392.373,803.886 393.873,805.886 396,807.5C 396.494,809.134 396.66,810.801 396.5,812.5C 397.5,812.5 398.5,812.5 399.5,812.5C 402.52,814.523 404.854,817.19 406.5,820.5C 407.419,823.089 409.086,825.089 411.5,826.5C 414.5,829.5 417.5,832.5 420.5,835.5C 421.585,837.587 423.251,838.92 425.5,839.5C 426.911,841.914 428.911,843.581 431.5,844.5C 432.545,845.878 433.878,846.878 435.5,847.5C 424.52,848.832 413.187,849.499 401.5,849.5C 387.487,849.421 373.487,849.088 359.5,848.5C 356.833,848.5 354.167,848.5 351.5,848.5C 351.389,847.883 351.056,847.383 350.5,847C 336.88,845.256 323.213,844.089 309.5,843.5C 304.196,842.616 298.863,841.949 293.5,841.5C 291.898,839.926 289.898,839.259 287.5,839.5C 284.763,839.599 282.096,839.265 279.5,838.5C 277.095,837.232 274.428,836.565 271.5,836.5C 262.168,834.443 252.835,832.276 243.5,830C 231.389,826.109 219.389,821.943 207.5,817.5C 203.998,814.94 199.998,813.274 195.5,812.5C 192.364,811.016 189.364,809.349 186.5,807.5C 184.013,805.828 181.679,803.828 179.5,801.5C 176.724,799.87 173.724,799.203 170.5,799.5C 153.617,789.453 139.784,776.12 129,759.5C 126.608,754.967 124.774,750.3 123.5,745.5C 123.333,689.499 123.5,633.499 124,577.5C 127.637,584.758 130.971,592.092 134,599.5C 146.426,611.474 159.593,622.641 173.5,633C 182.356,636.925 191.356,640.592 200.5,644C 201.047,644.925 201.713,645.758 202.5,646.5C 215.108,652.98 228.441,657.147 242.5,659C 279.138,670.795 316.805,677.628 355.5,679.5 Z"/></g>
<g><path style="opacity:1" fill="#246841" d="M 644.5,593.5 C 643.415,595.587 641.749,596.92 639.5,597.5C 640.539,595.469 642.205,594.136 644.5,593.5 Z"/></g>
<g><path style="opacity:1" fill="#43884d" d="M 420.5,597.5 C 414.974,597.179 409.64,597.512 404.5,598.5C 397.5,598.5 390.5,598.5 383.5,598.5C 391.12,597.081 398.953,596.414 407,596.5C 411.68,596.501 416.18,596.834 420.5,597.5 Z"/></g>
<g><path style="opacity:1" fill="#66b658" d="M 404.5,598.5 C 409.64,597.512 414.974,597.179 420.5,597.5C 426.189,597.532 431.855,597.866 437.5,598.5C 438.5,599.167 439.5,599.833 440.5,600.5C 428.523,599.622 416.523,598.955 404.5,598.5 Z"/></g>
<g><path style="opacity:1" fill="#3e844d" d="M 437.5,598.5 C 441.04,598.753 444.373,599.419 447.5,600.5C 445.167,600.5 442.833,600.5 440.5,600.5C 439.5,599.833 438.5,599.167 437.5,598.5 Z"/></g>
<g><path style="opacity:1" fill="#6ec955" d="M 383.5,598.5 C 390.5,598.5 397.5,598.5 404.5,598.5C 416.523,598.955 428.523,599.622 440.5,600.5C 442.833,600.5 445.167,600.5 447.5,600.5C 451.298,601.868 455.298,602.868 459.5,603.5C 466.493,604.397 473.159,606.063 479.5,608.5C 484.588,611.086 489.922,613.086 495.5,614.5C 496.93,615.537 498.597,616.204 500.5,616.5C 506.301,619.226 511.967,622.393 517.5,626C 518.793,626.49 520.127,626.657 521.5,626.5C 527.265,630.417 532.932,634.584 538.5,639C 540.134,639.494 541.801,639.66 543.5,639.5C 543.281,640.675 543.614,641.675 544.5,642.5C 552.174,648.183 559.507,654.183 566.5,660.5C 568.5,664.5 571.5,667.5 575.5,669.5C 575.842,670.338 576.508,670.672 577.5,670.5C 575.777,672.253 574.277,674.253 573,676.5C 565.297,693.673 559.297,711.34 555,729.5C 553.667,738.833 552.333,748.167 551,757.5C 550.667,757.167 550.333,756.833 550,756.5C 548.244,758.059 548.244,759.726 550,761.5C 550.784,780.848 550.617,800.181 549.5,819.5C 550.733,829.492 551.899,839.492 553,849.5C 554.297,858.957 559.13,865.791 567.5,870C 580.997,871.403 594.331,872.903 607.5,874.5C 601.841,874.13 596.174,873.797 590.5,873.5C 585.255,873.392 580.255,874.058 575.5,875.5C 550.781,875.997 526.115,875.33 501.5,873.5C 490.474,872.077 479.808,869.41 469.5,865.5C 467.898,863.926 465.898,863.259 463.5,863.5C 461.824,861.166 459.491,860.166 456.5,860.5C 451.009,856.363 445.009,853.03 438.5,850.5C 437.833,849.167 436.833,848.167 435.5,847.5C 433.878,846.878 432.545,845.878 431.5,844.5C 430.089,842.086 428.089,840.419 425.5,839.5C 424.415,837.413 422.749,836.08 420.5,835.5C 417.5,832.5 414.5,829.5 411.5,826.5C 410.581,823.911 408.914,821.911 406.5,820.5C 404.854,817.19 402.52,814.523 399.5,812.5C 398.414,807.738 395.747,804.072 391.5,801.5C 388.342,793.851 384.676,786.518 380.5,779.5C 380.275,776.454 378.942,774.121 376.5,772.5C 375.962,770.883 375.629,769.216 375.5,767.5C 374.056,763.999 372.89,760.332 372,756.5C 371.617,755.944 371.117,755.611 370.5,755.5C 368.521,752.554 367.521,749.221 367.5,745.5C 367.333,737.787 365.333,730.787 361.5,724.5C 362.218,717.086 361.218,710.086 358.5,703.5C 357.097,682.142 357.43,660.809 359.5,639.5C 362.621,632.631 364.288,625.297 364.5,617.5C 365.808,614.882 367.642,612.549 370,610.5C 370.011,607.341 370.845,604.507 372.5,602C 376.633,602.094 380.299,601.26 383.5,599.5C 383.5,599.167 383.5,598.833 383.5,598.5 Z"/></g>
<g><path style="opacity:1" fill="#40874b" d="M 447.5,600.5 C 452.069,599.886 456.069,600.886 459.5,603.5C 455.298,602.868 451.298,601.868 447.5,600.5 Z"/></g>
<g><path style="opacity:1" fill="#c1eeb4" d="M 873.5,591.5 C 875.217,594.845 875.884,598.511 875.5,602.5C 873.783,599.155 873.116,595.489 873.5,591.5 Z"/></g>
<g><path style="opacity:1" fill="#439050" d="M 635.5,601.5 C 633.781,604.219 631.447,606.219 628.5,607.5C 630.193,604.81 632.527,602.81 635.5,601.5 Z"/></g>
<g><path style="opacity:1" fill="#387b4a" d="M 479.5,608.5 C 485.344,609.434 490.677,611.434 495.5,614.5C 489.922,613.086 484.588,611.086 479.5,608.5 Z"/></g>
<g><path style="opacity:1" fill="#66b858" d="M 383.5,599.5 C 380.299,601.26 376.633,602.094 372.5,602C 370.845,604.507 370.011,607.341 370,610.5C 367.642,612.549 365.808,614.882 364.5,617.5C 364.436,604.56 370.77,598.56 383.5,599.5 Z"/></g>
<g><path style="opacity:1" fill="#66ab51" d="M 756.5,621.5 C 756.5,629.5 756.5,637.5 756.5,645.5C 760.099,644.897 762.432,642.897 763.5,639.5C 764.833,639.5 766.167,639.5 767.5,639.5C 767.5,638.5 767.5,637.5 767.5,636.5C 772.67,634.042 777.67,631.042 782.5,627.5C 783.429,626.311 783.762,624.978 783.5,623.5C 785.308,623.509 786.975,623.009 788.5,622C 794.071,614.92 801.071,612.92 809.5,616C 817.285,623.511 817.285,631.177 809.5,639C 808.167,639.333 806.833,639.667 805.5,640C 799.949,645.456 793.949,650.456 787.5,655C 786.207,655.49 784.873,655.657 783.5,655.5C 780.119,660.391 776.119,664.891 771.5,669C 765.611,673.734 759.944,678.567 754.5,683.5C 753.675,684.386 752.675,684.719 751.5,684.5C 751.657,685.873 751.49,687.207 751,688.5C 745.511,692.146 741.345,696.813 738.5,702.5C 748.194,702.307 757.861,702.64 767.5,703.5C 767.954,706.14 769.121,708.473 771,710.5C 771.498,713.482 771.665,716.482 771.5,719.5C 770.167,719.5 768.833,719.5 767.5,719.5C 767.785,721.288 767.452,722.955 766.5,724.5C 765.099,725.521 763.765,726.521 762.5,727.5C 745.83,727.333 729.163,727.5 712.5,728C 711.748,728.671 711.414,729.504 711.5,730.5C 709.743,731.292 708.409,732.625 707.5,734.5C 706.311,735.429 704.978,735.762 703.5,735.5C 702.203,740.833 699.203,745.166 694.5,748.5C 693.764,750.541 692.931,752.541 692,754.5C 688.795,759.552 684.962,764.219 680.5,768.5C 677.72,773.742 674.72,778.742 671.5,783.5C 670.167,783.5 668.833,783.5 667.5,783.5C 667.509,785.308 667.009,786.975 666,788.5C 661.374,794.94 657.04,801.607 653,808.5C 651.39,810.731 649.557,812.731 647.5,814.5C 632.489,817.489 626.489,811.489 629.5,796.5C 633.685,792.666 636.019,787.832 636.5,782C 633.322,766.476 630.155,750.976 627,735.5C 625.932,729.825 626.765,724.492 629.5,719.5C 631.681,719.716 633.347,718.883 634.5,717C 641.106,714.997 646.272,716.83 650,722.5C 652.628,732.012 654.461,741.679 655.5,751.5C 660.787,751.064 664.62,748.397 667,743.5C 670.832,742.164 672.332,739.497 671.5,735.5C 672.5,735.5 673.5,735.5 674.5,735.5C 674.351,734.448 674.517,733.448 675,732.5C 680.368,727.959 684.868,722.626 688.5,716.5C 693.5,713.5 697.5,709.5 700.5,704.5C 701.325,703.614 702.325,703.281 703.5,703.5C 703.5,701.833 703.5,700.167 703.5,698.5C 712.05,690.124 720.883,681.791 730,673.5C 730.026,655.41 730.693,637.41 732,619.5C 740.813,612.373 748.98,613.039 756.5,621.5 Z"/></g>
<g><path style="opacity:1" fill="#245f44" d="M 521.5,626.5 C 520.127,626.657 518.793,626.49 517.5,626C 511.967,622.393 506.301,619.226 500.5,616.5C 502.262,616.643 503.929,616.309 505.5,615.5C 506.382,616.76 507.382,617.926 508.5,619C 512.838,618.522 515.838,620.188 517.5,624C 519.32,624.2 520.653,625.034 521.5,626.5 Z"/></g>
<g><path style="opacity:1" fill="#68c061" d="M 628.5,607.5 C 628.5,609.167 628.5,610.833 628.5,612.5C 626.396,612.201 624.396,612.534 622.5,613.5C 619.516,616.985 616.349,620.318 613,623.5C 612.349,625.235 612.515,626.902 613.5,628.5C 611.5,629.167 609.5,629.833 607.5,630.5C 604.147,633.522 600.813,636.522 597.5,639.5C 606.427,627.571 616.761,616.904 628.5,607.5 Z"/></g>
<g><path style="opacity:1" fill="#57a351" d="M 364.5,617.5 C 364.288,625.297 362.621,632.631 359.5,639.5C 359.911,631.762 361.578,624.428 364.5,617.5 Z"/></g>
<g><path style="opacity:1" fill="#499756" d="M 597.5,639.5 C 595.878,642.455 593.878,645.122 591.5,647.5C 592.41,643.935 594.41,641.268 597.5,639.5 Z"/></g>
<g><path style="opacity:1" fill="#b1e9a4" d="M 875.5,602.5 C 876.302,603.952 876.802,605.618 877,607.5C 877.667,623.5 877.667,639.5 877,655.5C 876.48,661.025 875.647,666.358 874.5,671.5C 875.373,648.512 875.707,625.512 875.5,602.5 Z"/></g>
<g><path style="opacity:1" fill="#4a9855" d="M 591.5,647.5 C 589.83,650.175 588.164,652.841 586.5,655.5C 586.652,651.859 588.318,649.193 591.5,647.5 Z"/></g>
<g><path style="opacity:1" fill="#5aa753" d="M 359.5,639.5 C 357.43,660.809 357.097,682.142 358.5,703.5C 358.167,703.5 357.833,703.5 357.5,703.5C 356.634,687.517 356.3,671.517 356.5,655.5C 357.238,650.125 358.238,644.791 359.5,639.5 Z"/></g>
<g><path style="opacity:1" fill="#4a9247" d="M 566.5,660.5 C 567.5,661.167 568.5,661.833 569.5,662.5C 571.5,664.833 573.5,667.167 575.5,669.5C 571.5,667.5 568.5,664.5 566.5,660.5 Z"/></g>
<g><path style="opacity:1" fill="#08332c" d="M 579.5,664.5 C 578.833,666.5 578.167,668.5 577.5,670.5C 576.508,670.672 575.842,670.338 575.5,669.5C 573.5,667.167 571.5,664.833 569.5,662.5C 569.577,661.25 570.244,660.417 571.5,660C 574.827,659.39 578.161,658.89 581.5,658.5C 581.296,660.685 580.63,662.685 579.5,664.5 Z"/></g>
<g><path style="opacity:1" fill="#2b6a3e" d="M 356.5,655.5 C 356.3,671.517 356.634,687.517 357.5,703.5C 355.785,695.736 355.118,687.736 355.5,679.5C 355.174,671.316 355.508,663.316 356.5,655.5 Z"/></g>
<g><path style="opacity:1" fill="#74d460" d="M 756.5,621.5 C 748.98,613.039 740.813,612.373 732,619.5C 730.693,637.41 730.026,655.41 730,673.5C 720.883,681.791 712.05,690.124 703.5,698.5C 704.952,693.039 708.285,689.039 713.5,686.5C 714.331,683.328 716.331,681.662 719.5,681.5C 720.271,676.721 722.938,673.388 727.5,671.5C 728.026,653.752 728.859,636.086 730,618.5C 737.279,610.321 745.446,609.488 754.5,616C 755.861,617.584 756.528,619.418 756.5,621.5 Z"/></g>
<g><path style="opacity:1" fill="#66ab51" d="M 479.5,677.5 C 483.304,675.599 487.304,674.266 491.5,673.5C 494.791,673.279 497.291,674.613 499,677.5C 499.47,679.774 500.47,681.774 502,683.5C 501.85,695.875 502.683,707.875 504.5,719.5C 505.5,719.5 506.5,719.5 507.5,719.5C 507.167,722.5 508.5,723.833 511.5,723.5C 512.161,726.813 513.994,729.48 517,731.5C 517.333,734.5 519,736.167 522,736.5C 524.392,739.384 526.559,742.384 528.5,745.5C 531.054,746.899 532.72,748.899 533.5,751.5C 537.753,754.602 541.253,758.602 544,763.5C 545.972,764.305 547.472,765.639 548.5,767.5C 549.833,782.5 549.833,797.5 548.5,812.5C 547.573,810.887 546.739,809.221 546,807.5C 539.97,800.142 533.97,792.809 528,785.5C 527.51,784.207 527.343,782.873 527.5,781.5C 527.5,780.5 527.5,779.5 527.5,778.5C 526.448,778.649 525.448,778.483 524.5,778C 523.406,776.22 522.406,774.386 521.5,772.5C 520.575,771.359 519.741,771.359 519,772.5C 517.846,771.257 516.512,770.257 515,769.5C 500.575,770.656 486.075,770.823 471.5,770C 469.58,768.878 467.58,768.044 465.5,767.5C 463.554,762.604 462.887,757.271 463.5,751.5C 466.272,751.405 468.272,750.071 469.5,747.5C 477.138,746.503 484.804,746.169 492.5,746.5C 492.579,745.07 492.246,743.736 491.5,742.5C 489.142,740.976 487.309,738.976 486,736.5C 482.006,734.156 478.339,731.49 475,728.5C 473.991,726.975 473.491,725.308 473.5,723.5C 472.167,723.5 470.833,723.5 469.5,723.5C 469.241,719.932 467.241,718.599 463.5,719.5C 462.234,716.027 460.234,712.86 457.5,710C 446.8,704.965 438.3,697.465 432,687.5C 431.333,686.167 431.333,684.833 432,683.5C 433.867,680.897 435.367,678.064 436.5,675C 439.851,674.209 443.018,673.042 446,671.5C 451.533,672.895 455.7,676.062 458.5,681C 459.872,681.402 461.205,681.902 462.5,682.5C 466.037,685.805 469.704,688.971 473.5,692C 474.448,692.483 475.448,692.649 476.5,692.5C 476.335,689.15 476.502,685.817 477,682.5C 478.372,681.09 479.205,679.423 479.5,677.5 Z"/></g>
<g><path style="opacity:1" fill="#abe89b" d="M 874.5,671.5 C 874.42,677.125 873.42,682.458 871.5,687.5C 871.053,681.772 872.053,676.438 874.5,671.5 Z"/></g>
<g><path style="opacity:1" fill="#6aba53" d="M 504.5,719.5 C 502.683,707.875 501.85,695.875 502,683.5C 500.47,681.774 499.47,679.774 499,677.5C 497.291,674.613 494.791,673.279 491.5,673.5C 487.304,674.266 483.304,675.599 479.5,677.5C 480.909,675.583 482.576,673.75 484.5,672C 488.821,671.501 493.154,671.334 497.5,671.5C 499.708,674.906 501.708,678.573 503.5,682.5C 504.499,694.815 504.832,707.149 504.5,719.5 Z"/></g>
<g><path style="opacity:1" fill="#abe99c" d="M 871.5,687.5 C 870.866,693.02 869.866,698.353 868.5,703.5C 867.933,697.678 868.933,692.345 871.5,687.5 Z"/></g>
<g><path style="opacity:1" fill="#62af54" d="M 358.5,703.5 C 361.218,710.086 362.218,717.086 361.5,724.5C 360.833,722.833 360.167,721.167 359.5,719.5C 359.431,714.146 359.098,708.813 358.5,703.5 Z"/></g>
<g><path style="opacity:1" fill="#255e34" d="M 357.5,703.5 C 357.833,703.5 358.167,703.5 358.5,703.5C 359.098,708.813 359.431,714.146 359.5,719.5C 358.194,714.384 357.527,709.051 357.5,703.5 Z"/></g>
<g><path style="opacity:1" fill="#69bf54" d="M 762.5,727.5 C 746.338,728.331 730.005,728.831 713.5,729C 712.956,729.717 712.289,730.217 711.5,730.5C 711.414,729.504 711.748,728.671 712.5,728C 729.163,727.5 745.83,727.333 762.5,727.5 Z"/></g>
<g><path style="opacity:1" fill="#c2f0b6" d="M 863.5,719.5 C 863.662,721.527 863.495,723.527 863,725.5C 862.051,729.162 860.551,732.495 858.5,735.5C 859.433,729.714 861.099,724.381 863.5,719.5 Z"/></g>
<g><path style="opacity:1" fill="#5fad4e" d="M 361.5,724.5 C 365.333,730.787 367.333,737.787 367.5,745.5C 364.118,739.006 362.118,732.006 361.5,724.5 Z"/></g>
<g><path style="opacity:1" fill="#93e080" d="M 857.5,735.5 C 856.157,740.36 854.49,745.193 852.5,750C 852.164,751.03 851.497,751.53 850.5,751.5C 850.658,748.455 849.991,745.621 848.5,743C 849,742.5 849.5,742 850,741.5C 850.49,742.793 850.657,744.127 850.5,745.5C 851.5,745.5 852.5,745.5 853.5,745.5C 853.882,741.668 855.215,738.335 857.5,735.5 Z"/></g>
<g><path style="opacity:1" fill="#98e285" d="M 850.5,751.5 C 850.66,753.199 850.494,754.866 850,756.5C 846.81,759.914 844.31,763.581 842.5,767.5C 842.952,764.797 843.619,762.13 844.5,759.5C 847.018,757.088 849.018,754.421 850.5,751.5 Z"/></g>
<g><path style="opacity:1" fill="#529a49" d="M 370.5,755.5 C 371.117,755.611 371.617,755.944 372,756.5C 372.89,760.332 374.056,763.999 375.5,767.5C 372.167,764.328 370.5,760.328 370.5,755.5 Z"/></g>
<g><path style="opacity:1" fill="#65b24c" d="M 465.5,767.5 C 467.58,768.044 469.58,768.878 471.5,770C 486.075,770.823 500.575,770.656 515,769.5C 516.512,770.257 517.846,771.257 519,772.5C 519.741,771.359 520.575,771.359 521.5,772.5C 522.406,774.386 523.406,776.22 524.5,778C 525.448,778.483 526.448,778.649 527.5,778.5C 527.5,779.5 527.5,780.5 527.5,781.5C 524.048,779.883 521.381,777.383 519.5,774C 518.167,773.667 516.833,773.333 515.5,773C 501.167,772.667 486.833,772.333 472.5,772C 469.421,771.472 467.087,769.972 465.5,767.5 Z"/></g>
<g><path style="opacity:1" fill="#73d05e" d="M 629.5,719.5 C 626.765,724.492 625.932,729.825 627,735.5C 630.155,750.976 633.322,766.476 636.5,782C 636.019,787.832 633.685,792.666 629.5,796.5C 632.395,792.307 634.395,787.64 635.5,782.5C 633.031,769.99 629.865,757.657 626,745.5C 625.333,738.5 625.333,731.5 626,724.5C 626.22,722.027 627.386,720.36 629.5,719.5 Z"/></g>
<g><path style="opacity:1" fill="#beecad" d="M 841.5,771.5 C 840.532,774.1 839.199,776.434 837.5,778.5C 837.149,775.188 838.482,772.855 841.5,771.5 Z"/></g>
<g><path style="opacity:1" fill="#34723c" d="M 376.5,772.5 C 378.942,774.121 380.275,776.454 380.5,779.5C 378.058,777.879 376.725,775.546 376.5,772.5 Z"/></g>
<g><path style="opacity:1" fill="#d7f6ce" d="M 837.5,778.5 C 837.477,780.927 836.977,783.26 836,785.5C 832.667,788.002 829.501,790.668 826.5,793.5C 828.88,790.44 830.88,787.106 832.5,783.5C 833.855,781.479 835.521,779.812 837.5,778.5 Z"/></g>
<g><path style="opacity:1" fill="#bcf0af" d="M 826.5,793.5 C 826.378,796.292 825.044,798.292 822.5,799.5C 823.449,797.223 824.782,795.223 826.5,793.5 Z"/></g>
<g><path style="opacity:1" fill="#394f4c" d="M 170.5,799.5 C 173.724,799.203 176.724,799.87 179.5,801.5C 181.679,803.828 184.013,805.828 186.5,807.5C 180.849,805.341 175.516,802.674 170.5,799.5 Z"/></g>
<g><path style="opacity:1" fill="#b1eca5" d="M 820.5,802.5 C 819.483,804.911 817.816,806.578 815.5,807.5C 816.517,805.089 818.184,803.422 820.5,802.5 Z"/></g>
<g><path style="opacity:1" fill="#174a2b" d="M 391.5,801.5 C 395.747,804.072 398.414,807.738 399.5,812.5C 398.5,812.5 397.5,812.5 396.5,812.5C 396.66,810.801 396.494,809.134 396,807.5C 393.873,805.886 392.373,803.886 391.5,801.5 Z"/></g>
<g><path style="opacity:1" fill="#b1bfbf" d="M 195.5,812.5 C 199.998,813.274 203.998,814.94 207.5,817.5C 203.989,816.227 200.322,815.227 196.5,814.5C 196.137,813.817 195.804,813.15 195.5,812.5 Z"/></g>
<g><path style="opacity:1" fill="#d5f8cc" d="M 815.5,808.5 C 812.83,812.012 810.33,815.678 808,819.5C 806.729,820.883 805.229,821.883 803.5,822.5C 806.207,820.098 808.207,817.098 809.5,813.5C 811.563,811.758 813.563,810.091 815.5,808.5 Z"/></g>
<g><path style="opacity:1" fill="#296337" d="M 406.5,820.5 C 408.914,821.911 410.581,823.911 411.5,826.5C 409.086,825.089 407.419,823.089 406.5,820.5 Z"/></g>
<g><path style="opacity:1" fill="#c6f7bd" d="M 799.5,826.5 C 798.008,829.323 795.674,830.99 792.5,831.5C 794.55,829.453 796.883,827.786 799.5,826.5 Z"/></g>
<g><path style="opacity:1" fill="#a1e293" d="M 792.5,831.5 C 789.792,834.209 786.792,836.542 783.5,838.5C 785.592,835.083 788.592,832.75 792.5,831.5 Z"/></g>
<g><path style="opacity:1" fill="#3d7946" d="M 420.5,835.5 C 422.749,836.08 424.415,837.413 425.5,839.5C 423.251,838.92 421.585,837.587 420.5,835.5 Z"/></g>
<g><path style="opacity:1" fill="#7b8c8b" d="M 271.5,836.5 C 274.428,836.565 277.095,837.232 279.5,838.5C 276.505,838.706 273.838,838.04 271.5,836.5 Z"/></g>
<g><path style="opacity:1" fill="#4b8d4c" d="M 425.5,839.5 C 428.089,840.419 430.089,842.086 431.5,844.5C 428.911,843.581 426.911,841.914 425.5,839.5 Z"/></g>
<g><path style="opacity:1" fill="#7f9390" d="M 287.5,839.5 C 289.898,839.259 291.898,839.926 293.5,841.5C 291.102,841.741 289.102,841.074 287.5,839.5 Z"/></g>
<g><path style="opacity:1" fill="#beeeb0" d="M 783.5,839.5 C 779.774,842.556 775.774,845.223 771.5,847.5C 774.665,843.683 778.665,841.016 783.5,839.5 Z"/></g>
<g><path style="opacity:1" fill="#36514d" d="M 309.5,843.5 C 323.213,844.089 336.88,845.256 350.5,847C 351.056,847.383 351.389,847.883 351.5,848.5C 341.456,847.896 331.456,846.896 321.5,845.5C 317.295,845.283 313.295,844.617 309.5,843.5 Z"/></g>
<g><path style="opacity:1" fill="#cad1d1" d="M 321.5,845.5 C 331.456,846.896 341.456,847.896 351.5,848.5C 354.167,848.5 356.833,848.5 359.5,848.5C 361.5,849.167 363.5,849.833 365.5,850.5C 353.491,849.866 341.491,849.033 329.5,848C 326.69,847.218 324.023,846.384 321.5,845.5 Z"/></g>
<g><path style="opacity:1" fill="#3e5853" d="M 435.5,847.5 C 436.833,848.167 437.833,849.167 438.5,850.5C 414.167,850.5 389.833,850.5 365.5,850.5C 363.5,849.833 361.5,849.167 359.5,848.5C 373.487,849.088 387.487,849.421 401.5,849.5C 413.187,849.499 424.52,848.832 435.5,847.5 Z"/></g>
<g><path style="opacity:1" fill="#c9f1b9" d="M 770.5,847.5 C 770.489,849.017 769.823,850.184 768.5,851C 763.964,853.099 759.298,854.932 754.5,856.5C 759.335,852.677 764.668,849.677 770.5,847.5 Z"/></g>
<g><path style="opacity:1" fill="#bfe9b4" d="M 456.5,860.5 C 459.491,860.166 461.824,861.166 463.5,863.5C 460.759,863.293 458.426,862.293 456.5,860.5 Z"/></g>
<g><path style="opacity:1" fill="#bfe5ae" d="M 463.5,863.5 C 465.898,863.259 467.898,863.926 469.5,865.5C 467.102,865.741 465.102,865.074 463.5,863.5 Z"/></g>
<g><path style="opacity:1" fill="#d0f3c6" d="M 719.5,869.5 C 714.51,871.622 709.177,872.622 703.5,872.5C 708.49,870.378 713.823,869.378 719.5,869.5 Z"/></g>
<g><path style="opacity:1" fill="#c9f0bc" d="M 607.5,874.5 C 613.069,874.376 618.402,875.043 623.5,876.5C 607.51,874.922 591.51,874.589 575.5,875.5C 580.255,874.058 585.255,873.392 590.5,873.5C 596.174,873.797 601.841,874.13 607.5,874.5 Z"/></g>
<g><path style="opacity:1" fill="#aadd95" d="M 501.5,873.5 C 526.115,875.33 550.781,875.997 575.5,875.5C 554.343,877.991 533.009,878.158 511.5,876C 507.867,875.851 504.534,875.018 501.5,873.5 Z"/></g>
</svg>
